<?xml version="1.0" encoding="UTF-8"?>
<svg id="Layer_1" xmlns="http://www.w3.org/2000/svg" version="1.1" viewBox="0 0 185 185">
  <!-- Generator: Adobe Illustrator 29.2.1, SVG Export Plug-In . SVG Version: 2.1.0 Build 116)  -->
  <defs>
    <style>
      .st0 {
        fill: #fff;
      }

      .st1 {
        fill: #2f78fa;
      }

      .st2 {
        fill: #fafafa;
      }
    </style>
  </defs>
  <rect class="st2" x="-2" y="-1.5" width="189" height="188.2"/>
  <path class="st1" d="M69.2,57.9h46.6c19.1,0,34.5,15.5,34.5,34.5h0c0,19.1-15.5,34.5-34.5,34.5h-46.6c-19.1,0-34.5-15.5-34.5-34.5h0c0-19.1,15.5-34.5,34.5-34.5Z"/>
  <path class="st0" d="M69.5,84.2v16.2c0,3,1.6,6,4.4,7.7l14.2,8.2c2.7,1.6,6,1.6,8.8,0l14.2-8.2c2.7-1.6,4.4-4.4,4.4-7.7v-16.2c0-3-1.6-6-4.4-7.7l-14.2-8.2c-2.7-1.6-6-1.6-8.8,0l-14.2,8.2c-2.7,1.6-4.4,4.4-4.4,7.7Z"/>
</svg>